<?xml version="1.0" encoding="utf-8"?>
<!-- Generator: Adobe Illustrator 16.0.0, SVG Export Plug-In . SVG Version: 6.00 Build 0)  -->
<!DOCTYPE svg PUBLIC "-//W3C//DTD SVG 1.1//EN" "http://www.w3.org/Graphics/SVG/1.1/DTD/svg11.dtd">
<svg version="1.1" id="Слой_1" xmlns="http://www.w3.org/2000/svg" xmlns:xlink="http://www.w3.org/1999/xlink" x="0px" y="0px"
	 width="20px" height="20px" viewBox="0 0 20 20" enable-background="new 0 0 20 20" xml:space="preserve">
<path fill="#070808" d="M14.884,12.742c-0.378-0.344-0.475-0.898-0.236-1.35c0.715-1.358,1.039-2.954,0.825-4.639
	c-0.425-3.346-3.061-6.101-6.386-6.646c-5.312-0.873-9.84,3.658-8.974,8.977c0.541,3.325,3.283,5.963,6.619,6.399
	c1.68,0.219,3.271-0.102,4.627-0.813c0.447-0.232,0.994-0.139,1.337,0.232l4.198,4.539c0.734,0.799,2.046,0.73,2.736-0.133
	c0.597-0.75,0.427-1.859-0.282-2.504L14.884,12.742z M2.006,7.774C2.006,4.585,4.588,2,7.771,2c3.186,0,5.767,2.585,5.767,5.773
	s-2.581,5.773-5.767,5.773C4.588,13.547,2.006,10.962,2.006,7.774z"/>
</svg>
