<?xml version="1.0" encoding="utf-8"?>
<!-- Generator: Adobe Illustrator 16.0.0, SVG Export Plug-In . SVG Version: 6.00 Build 0)  -->
<!DOCTYPE svg PUBLIC "-//W3C//DTD SVG 1.1//EN" "http://www.w3.org/Graphics/SVG/1.1/DTD/svg11.dtd">
<svg version="1.1" id="Слой_1" xmlns="http://www.w3.org/2000/svg" xmlns:xlink="http://www.w3.org/1999/xlink" x="0px" y="0px"
	 width="80px" height="80px" viewBox="0 0 80 80" enable-background="new 0 0 80 80" xml:space="preserve">
<path fill-rule="evenodd" clip-rule="evenodd" d="M65.736,36.746c0,13.015-9.68,23.744-22.227,25.448v8.45h11.697
	c1.939,0,3.51,1.572,3.51,3.51s-1.57,3.51-3.51,3.51H40H24.792c-1.938,0-3.51-1.572-3.51-3.51s1.572-3.51,3.51-3.51h11.698v-8.45
	c-12.547-1.704-22.227-12.433-22.227-25.448c0-0.006,0-0.012,0.001-0.017c0-0.003-0.001-0.006-0.001-0.009
	c0-1.938,1.571-3.51,3.51-3.51s3.509,1.571,3.509,3.51l0,0C21.288,47.056,29.665,55.432,40,55.436
	c10.335-0.004,18.712-8.38,18.716-18.716l0,0c0-1.938,1.572-3.51,3.51-3.51c1.939,0,3.51,1.571,3.51,3.51c0,0.003,0,0.006,0,0.009
	C65.736,36.734,65.736,36.74,65.736,36.746z M40,49.587L40,49.587c-7.753,0-14.039-6.284-14.039-14.038V16.832
	C25.962,9.08,32.248,2.794,40,2.794l0,0c7.751,0,14.039,6.286,14.039,14.038v18.718C54.039,43.303,47.752,49.587,40,49.587z"/>
</svg>
