<?xml version="1.0" encoding="utf-8"?>
<!-- Generator: Adobe Illustrator 16.0.0, SVG Export Plug-In . SVG Version: 6.00 Build 0)  -->
<!DOCTYPE svg PUBLIC "-//W3C//DTD SVG 1.1//EN" "http://www.w3.org/Graphics/SVG/1.1/DTD/svg11.dtd">
<svg version="1.1" id="Слой_1" xmlns="http://www.w3.org/2000/svg" xmlns:xlink="http://www.w3.org/1999/xlink" x="0px" y="0px"
	 width="55px" height="55px" viewBox="0 0 55 55" enable-background="new 0 0 55 55" xml:space="preserve">
<path fill="#0B0B0B" d="M41.776,22.805c0.698-0.421,0.959-1.314,0.588-2.042c-4.215-8.277-13.165-11.427-21.07-8.086
	c-7.907,3.341-11.923,11.884-8.95,20.606c0.261,0.765,1.066,1.2,1.851,1.01c3.396-0.833,8.202-2.291,14.196-4.823
	C34.223,27.006,38.59,24.724,41.776,22.805L41.776,22.805z M43.113,17.23c0.339,0.449,0.897,0.672,1.453,0.585
	c4.007-0.623,6.628-0.568,6.864-0.006c0.421,0.996-5.643,6.997-22.076,13.942C14.058,38.215,4.31,38.67,3.84,37.556
	c-0.244-0.574,1.462-2.446,4.841-4.899c0.46-0.334,0.699-0.895,0.616-1.457l-0.135-0.902c-0.119-0.798-1.039-1.189-1.693-0.719
	c-5.165,3.729-7.647,7.087-6.719,9.284c1.667,3.946,12.552,3.117,29.839-4.189c18.575-7.848,25.47-14.531,23.802-18.477
	c-0.896-2.12-5.18-2.548-11.238-1.529c-0.798,0.134-1.167,1.068-0.681,1.713L43.113,17.23z M31.553,36.953
	c-3.91,1.652-7.602,3.019-11,4.08c-0.623,0.194-0.693,1.048-0.108,1.337c4.102,2.016,9.021,2.311,13.561,0.391
	c4.513-1.906,7.718-5.604,9.146-9.916c0.203-0.616-0.453-1.164-1.028-0.859C39.048,33.618,35.521,35.275,31.553,36.953
	L31.553,36.953z"/>
</svg>
