<?xml version="1.0" encoding="utf-8"?>
<!-- Generator: Adobe Illustrator 16.0.0, SVG Export Plug-In . SVG Version: 6.00 Build 0)  -->
<!DOCTYPE svg PUBLIC "-//W3C//DTD SVG 1.1//EN" "http://www.w3.org/Graphics/SVG/1.1/DTD/svg11.dtd">
<svg version="1.1" id="Слой_1" xmlns="http://www.w3.org/2000/svg" xmlns:xlink="http://www.w3.org/1999/xlink" x="0px" y="0px"
	 width="80px" height="80px" viewBox="0 0 80 80" enable-background="new 0 0 80 80" xml:space="preserve">
<path fill-rule="evenodd" clip-rule="evenodd" d="M69.271,34.045c-1.218,0.714-1.355,6.076,5.484,9.313
	c0,0-9.684,1.527-15.824-6.234c-1.518,0.217-3.088,0.683-4.695,0.683c-13.189,0-21.229-7.598-21.229-17.099
	c0-9.5,8.039-17.202,21.229-17.202s23.632,7.702,23.632,17.202C77.867,26.087,74.64,30.892,69.271,34.045z M28.546,22.408
	c0.596,10.514,9.843,19.318,24.045,20.204c1.598,0.063,3.165-0.327,4.7-0.563c0-0.006,0-0.013,0-0.018l0.418-0.105
	c4.096,4.212,9.272,5.012,12.258,5.081c-2.995,11.485-14.418,19.937-31.595,19.937c-2.453,0-4.85-0.71-7.168-1.042
	C21.83,77.75,7.048,75.419,7.048,75.419c10.441-4.943,10.229-13.13,8.373-14.22C7.224,56.384,2.297,49.053,2.297,40.838
	c0-12.361,11.595-22.7,27.482-25.493C28.907,17.563,28.465,19.942,28.546,22.408z"/>
</svg>
