<?xml version="1.0" encoding="utf-8"?>
<!-- Generator: Adobe Illustrator 16.0.0, SVG Export Plug-In . SVG Version: 6.00 Build 0)  -->
<!DOCTYPE svg PUBLIC "-//W3C//DTD SVG 1.1//EN" "http://www.w3.org/Graphics/SVG/1.1/DTD/svg11.dtd">
<svg version="1.1" id="Слой_1" xmlns="http://www.w3.org/2000/svg" xmlns:xlink="http://www.w3.org/1999/xlink" x="0px" y="0px"
	 width="55px" height="55px" viewBox="0 0 55 55" enable-background="new 0 0 55 55" xml:space="preserve">
<path fill="#0B0B0B" d="M37.875,26.568c-1.612-2.471-2.473-5.36-2.473-8.312V9.058c0-1.915,0.598-3.952,1.558-5.608
	c0.737-1.274-0.183-2.87-1.653-2.87H20.218c-1.472,0-2.392,1.595-1.653,2.87c0.959,1.657,1.555,3.693,1.555,5.608v9.199
	c0,2.951-0.858,5.84-2.471,8.312L6.47,43.708c-3.014,4.623,0.302,10.745,5.821,10.745h30.942c5.519,0,8.834-6.122,5.822-10.745
	L37.875,26.568z M12.186,51.163c-2.858,0-4.58-3.164-3.029-5.563L20.34,28.3c1.966-3.039,3.011-6.582,3.011-10.203V5.631
	c0-0.98,0.794-1.774,1.775-1.774h5.217c0.981,0,1.775,0.794,1.775,1.774v12.383c0,3.62,1.045,7.163,3.011,10.203L46.367,45.6
	c1.55,2.399-0.172,5.563-3.029,5.563H12.186z M35.441,34.74c-0.334-0.519-0.945-0.792-1.557-0.719
	c-0.831,0.102-0.749,0.239-2.403,0.239c-2.626,0-4.329-1.049-7.31-1.049c-0.864,0-1.705,0.118-2.468,0.288
	c-0.624,0.138-1.167,0.508-1.511,1.045l-7.191,11.202c-0.609,0.949,0.072,2.196,1.2,2.196h27.105c1.127,0,1.809-1.247,1.198-2.196
	L35.441,34.74z"/>
</svg>
