<?xml version="1.0" encoding="utf-8"?>
<!-- Generator: Adobe Illustrator 16.0.0, SVG Export Plug-In . SVG Version: 6.00 Build 0)  -->
<!DOCTYPE svg PUBLIC "-//W3C//DTD SVG 1.1//EN" "http://www.w3.org/Graphics/SVG/1.1/DTD/svg11.dtd">
<svg version="1.1" id="Слой_1" xmlns="http://www.w3.org/2000/svg" xmlns:xlink="http://www.w3.org/1999/xlink" x="0px" y="0px"
	 width="80px" height="80px" viewBox="0 0 80 80" enable-background="new 0 0 80 80" xml:space="preserve">
<path fill-rule="evenodd" clip-rule="evenodd" d="M75.91,43.308L75.91,43.308L41.483,57.555c-0.006,0.002-0.011,0.004-0.017,0.007
	l-0.015,0.006h-0.001c-0.421,0.174-0.88,0.271-1.362,0.271c-0.483,0-0.942-0.098-1.363-0.271l0,0l-0.016-0.006
	c-0.006-0.003-0.011-0.005-0.017-0.007L4.266,43.308h0.001c-1.292-0.535-2.202-1.806-2.202-3.293c0-1.968,1.596-3.564,3.565-3.564
	c0.482,0,0.942,0.099,1.362,0.272l0.001-0.001l0.015,0.007c0.005,0.002,0.01,0.005,0.016,0.006l33.064,13.682l33.063-13.682
	c0.006-0.001,0.011-0.004,0.017-0.006l0.016-0.007v0.001c0.421-0.174,0.881-0.272,1.363-0.272c1.969,0,3.564,1.596,3.564,3.564
	C78.112,41.502,77.202,42.772,75.91,43.308z M75.91,27.86v0.001L41.483,42.108c-0.006,0.002-0.011,0.005-0.017,0.006l-0.015,0.006
	h-0.001c-0.421,0.174-0.88,0.271-1.362,0.271c-0.483,0-0.942-0.098-1.363-0.271l0,0l-0.016-0.006
	c-0.006-0.001-0.011-0.004-0.017-0.006L4.266,27.862l0.001-0.001c-1.292-0.535-2.202-1.807-2.202-3.292s0.91-2.756,2.202-3.292
	l-0.001-0.002L38.694,7.029c0.006-0.002,0.01-0.004,0.017-0.007l0.016-0.007v0.001c0.42-0.173,0.88-0.272,1.363-0.272
	c0.482,0,0.941,0.099,1.362,0.272l0.001-0.001l0.015,0.007c0.006,0.002,0.011,0.005,0.017,0.007L75.91,21.274v0.002
	c1.292,0.536,2.202,1.806,2.202,3.292S77.202,27.325,75.91,27.86z M5.63,51.897c0.482,0,0.942,0.099,1.362,0.273l0.001-0.002
	l0.015,0.007c0.005,0.001,0.01,0.003,0.016,0.007l33.064,13.682l33.063-13.682c0.006-0.004,0.011-0.006,0.017-0.007l0.016-0.007
	v0.002c0.421-0.175,0.881-0.273,1.363-0.273c1.969,0,3.564,1.597,3.564,3.565c0,1.484-0.91,2.756-2.202,3.293v0.001L41.483,73.002
	c-0.006,0.003-0.011,0.005-0.017,0.008l-0.015,0.004h-0.001c-0.421,0.175-0.88,0.272-1.362,0.272c-0.483,0-0.942-0.098-1.363-0.272
	l0,0L38.71,73.01c-0.006-0.003-0.011-0.005-0.017-0.008L4.266,58.757l0.001-0.001c-1.292-0.537-2.202-1.809-2.202-3.293
	C2.065,53.494,3.661,51.897,5.63,51.897z"/>
</svg>
