<?xml version="1.0" encoding="utf-8"?>
<!-- Generator: Adobe Illustrator 16.0.0, SVG Export Plug-In . SVG Version: 6.00 Build 0)  -->
<!DOCTYPE svg PUBLIC "-//W3C//DTD SVG 1.1//EN" "http://www.w3.org/Graphics/SVG/1.1/DTD/svg11.dtd">
<svg version="1.1" id="Слой_1" xmlns="http://www.w3.org/2000/svg" xmlns:xlink="http://www.w3.org/1999/xlink" x="0px" y="0px"
	 width="80px" height="80px" viewBox="0 0 80 80" enable-background="new 0 0 80 80" xml:space="preserve">
<path fill-rule="evenodd" clip-rule="evenodd" d="M75.14,75.63H5.415c-1.992,0-3.607-1.615-3.607-3.607
	c0-1.99,1.615-3.605,3.607-3.605H75.14c1.991,0,3.606,1.615,3.606,3.605C78.746,74.015,77.131,75.63,75.14,75.63z M60.514,22.172
	L50.359,12.04l7.615-7.601c1.402-1.399,3.675-1.399,5.076,0l5.078,5.068c1.401,1.399,1.401,3.667,0,5.066L60.514,22.172z
	 M27.515,55.104L17.362,44.973l30.459-30.4l10.153,10.133L27.515,55.104z M11.423,61.011l3.379-13.509l10.154,10.137L11.423,61.011z
	"/>
</svg>
