<?xml version="1.0" encoding="utf-8"?>
<!-- Generator: Adobe Illustrator 16.0.0, SVG Export Plug-In . SVG Version: 6.00 Build 0)  -->
<!DOCTYPE svg PUBLIC "-//W3C//DTD SVG 1.1//EN" "http://www.w3.org/Graphics/SVG/1.1/DTD/svg11.dtd">
<svg version="1.1" id="Слой_1" xmlns="http://www.w3.org/2000/svg" xmlns:xlink="http://www.w3.org/1999/xlink" x="0px" y="0px"
	 width="80px" height="80px" viewBox="0 0 80 80" enable-background="new 0 0 80 80" xml:space="preserve">
<path fill-rule="evenodd" clip-rule="evenodd" d="M78.437,34.577c0,5.24-4.248,9.489-9.487,9.489c-5.241,0-9.49-4.249-9.49-9.489
	l0,0l0,0l0,0c0,5.24-4.249,9.489-9.488,9.489c-5.24,0-9.489-4.249-9.489-9.489l0,0l0,0l0,0l0,0c0,5.24-4.249,9.489-9.489,9.489
	s-9.489-4.249-9.489-9.489l0,0l0,0l0,0l0,0c0,5.24-4.248,9.489-9.488,9.489s-9.489-4.249-9.489-9.489l0,0l0,0l0,0L9.2,16.785h62.565
	L78.437,34.577L78.437,34.577L78.437,34.577z M66.575,13.228H14.388c-1.965,0-3.558-1.594-3.558-3.559
	c0-1.965,1.593-3.558,3.558-3.558h52.187c1.967,0,3.56,1.593,3.56,3.558C70.135,11.634,68.542,13.228,66.575,13.228z M13.202,47.564
	v-0.002c0.341-0.029,0.676-0.08,1.008-0.137c0.072-0.013,0.146-0.019,0.216-0.031c0.154-0.029,0.303-0.073,0.454-0.106
	c0.645-0.148,1.275-0.331,1.881-0.568v0.002l0,0v17.507h47.442V46.722l0,0V46.72c0.605,0.237,1.235,0.418,1.881,0.568
	c0.149,0.033,0.3,0.077,0.454,0.106c0.071,0.013,0.146,0.019,0.216,0.03c0.333,0.058,0.667,0.108,1.009,0.138v0.002
	c0.391,0.038,0.784,0.059,1.187,0.059c0.81,0,1.601-0.083,2.371-0.226v23.947c0,1.965-1.593,3.559-3.558,3.559H13.202
	c-1.965,0-3.558-1.594-3.558-3.559V47.397c0.77,0.143,1.561,0.226,2.372,0.226C12.417,47.623,12.812,47.603,13.202,47.564z"/>
</svg>
