<?xml version="1.0" encoding="utf-8"?>
<!-- Generator: Adobe Illustrator 16.0.0, SVG Export Plug-In . SVG Version: 6.00 Build 0)  -->
<!DOCTYPE svg PUBLIC "-//W3C//DTD SVG 1.1//EN" "http://www.w3.org/Graphics/SVG/1.1/DTD/svg11.dtd">
<svg version="1.1" id="Слой_1" xmlns="http://www.w3.org/2000/svg" xmlns:xlink="http://www.w3.org/1999/xlink" x="0px" y="0px"
	 width="80px" height="80px" viewBox="0 0 80 80" enable-background="new 0 0 80 80" xml:space="preserve">
<path fill-rule="evenodd" clip-rule="evenodd" d="M62.254,56.862c-9.678,9.678-24.821,10.5-35.464,2.527L11.201,74.979
	c-1.819,1.818-4.769,1.818-6.588,0c-1.818-1.819-1.818-4.768,0-6.586l15.589-15.591c-7.972-10.643-7.149-25.787,2.527-35.464
	l9.333-9.332l6.587,6.587l10.979-10.98c1.819-1.819,4.767-1.819,6.587,0c1.819,1.819,1.819,4.77,0,6.588l-10.979,10.98
	l13.175,13.174l10.979-10.979c1.818-1.818,4.768-1.818,6.587,0c1.818,1.819,1.818,4.768,0,6.587L64.999,40.944l6.588,6.586
	L62.254,56.862z"/>
</svg>
