<?xml version="1.0" encoding="utf-8"?>
<!-- Generator: Adobe Illustrator 16.0.0, SVG Export Plug-In . SVG Version: 6.00 Build 0)  -->
<!DOCTYPE svg PUBLIC "-//W3C//DTD SVG 1.1//EN" "http://www.w3.org/Graphics/SVG/1.1/DTD/svg11.dtd">
<svg version="1.1" id="Слой_1" xmlns="http://www.w3.org/2000/svg" xmlns:xlink="http://www.w3.org/1999/xlink" x="0px" y="0px"
	 width="80px" height="80px" viewBox="0 0 80 80" enable-background="new 0 0 80 80" xml:space="preserve">
<path fill-rule="evenodd" clip-rule="evenodd" d="M56.449,6.903c-5.665,0-10.206,2.034-14.211,6.041
	c-0.003,0.002-0.005,0.003-0.007,0.006c0,0-0.002,0.001-0.003,0.002l-2.276,2.865l-2.277-2.694
	c-0.002-0.003-0.004-0.004-0.007-0.007c0,0,0,0-0.001-0.001l0,0c-4.006-4.005-8.547-6.212-14.212-6.212
	c-5.666,0-10.992,2.207-14.998,6.212c-4.005,4.006-6.212,9.332-6.212,14.997c0,5.664,2.204,10.987,6.206,14.993l28.154,28.391
	c0.886,0.893,2.09,1.395,3.347,1.395c1.256,0,2.462-0.502,3.346-1.395l28.153-28.389c4.003-4.005,6.207-9.33,6.207-14.993
	c0-5.666-2.205-10.992-6.211-14.998C67.44,9.11,62.115,6.903,56.449,6.903L56.449,6.903z"/>
</svg>
