<?xml version="1.0" encoding="utf-8"?>
<!-- Generator: Adobe Illustrator 16.0.0, SVG Export Plug-In . SVG Version: 6.00 Build 0)  -->
<!DOCTYPE svg PUBLIC "-//W3C//DTD SVG 1.1//EN" "http://www.w3.org/Graphics/SVG/1.1/DTD/svg11.dtd">
<svg version="1.1" id="Слой_1" xmlns="http://www.w3.org/2000/svg" xmlns:xlink="http://www.w3.org/1999/xlink" x="0px" y="0px"
	 width="84px" height="51px" viewBox="0 0 84 51" enable-background="new 0 0 84 51" xml:space="preserve">
<path d="M42.028,50.988c-22.906,0-35.978-14.595-40.534-20.869c-2.011-2.769-1.983-6.476,0.068-9.219
	C6.264,14.616,19.619,0,42.028,0C64.53,0,77.79,14.601,82.443,20.881c2.045,2.756,2.052,6.47,0.019,9.231
	C77.841,36.39,64.65,50.988,42.028,50.988z M42.028,3.32c-20.901,0-33.395,13.683-37.795,19.565c-1.178,1.576-1.194,3.7-0.041,5.289
	c4.257,5.858,16.465,19.494,37.835,19.494c21.098,0,33.426-13.651,37.746-19.521c1.149-1.56,1.145-3.735-0.01-5.294
	C75.409,16.98,63.015,3.32,42.028,3.32z M41.996,43.523c-9.975,0-18.089-8.087-18.089-18.028S32.021,7.467,41.996,7.467
	s18.089,8.087,18.089,18.028S51.971,43.523,41.996,43.523z M41.996,10.788c-8.137,0-14.757,6.598-14.757,14.708
	s6.621,14.708,14.757,14.708c8.137,0,14.757-6.599,14.757-14.708S50.133,10.788,41.996,10.788z M42.082,35.988
	c-5.625,0-10.165-4.372-10.51-9.814c-0.394-6.167,4.545-11.178,10.523-11.178c1.876,0.007,3.014,2.067,2.043,3.677
	c-0.469,0.775-0.665,1.667-0.567,2.574c0.207,1.942,1.773,3.496,3.727,3.696c0.982,0.086,1.571-0.176,2.622-0.353
	c1.569,0,2.782,1.45,2.466,3.009C51.391,32.46,47.059,35.988,42.082,35.988L42.082,35.988z M40.587,18.472
	c-3.287,0.688-5.928,3.73-5.69,7.493c0.218,3.432,2.909,6.561,7.185,6.703c2.944,0,5.559-1.81,6.646-4.448
	c-0.552,0.07-1.157,0.084-1.765,0.029c-3.516-0.363-6.333-3.155-6.705-6.647C40.144,20.532,40.255,19.471,40.587,18.472
	L40.587,18.472z"/>
</svg>
